<?xml version="1.0" standalone="no"?>
<!DOCTYPE svg PUBLIC "-//W3C//DTD SVG 20010904//EN"
 "http://www.w3.org/TR/2001/REC-SVG-20010904/DTD/svg10.dtd">
<svg version="1.0" xmlns="http://www.w3.org/2000/svg"
 width="500.000000pt" height="500.000000pt" viewBox="0 0 500.000000 500.000000"
 preserveAspectRatio="xMidYMid meet">
<metadata>
Created by potrace 1.14, written by Peter Selinger 2001-2017
</metadata>
<g transform="translate(0.000000,500.000000) scale(0.100000,-0.100000)"
fill="#000000" stroke="none">
<path d="M3717 3450 c3 -11 9 -17 15 -14 5 3 4 12 -3 20 -16 19 -18 18 -12 -6z"/>
<path d="M2953 2671 c-225 -273 -408 -500 -408 -507 0 -11 64 -89 69 -83 2 2
194 236 428 520 l424 515 -53 25 -53 25 -407 -495z"/>
<path d="M1260 1311 c0 -5 7 -11 15 -15 12 -4 15 -24 15 -94 0 -80 2 -91 23
-110 25 -24 93 -30 127 -12 26 14 40 63 40 146 0 59 3 74 15 74 8 0 15 5 15
10 0 6 -20 10 -45 10 -25 0 -45 -4 -45 -10 0 -5 7 -10 15 -10 12 0 15 -16 15
-85 0 -72 -3 -88 -20 -105 -24 -24 -57 -26 -88 -4 -20 14 -22 23 -22 105 0 72
3 89 15 89 8 0 15 5 15 10 0 6 -20 10 -45 10 -25 0 -45 -4 -45 -9z"/>
<path d="M1780 1300 c0 -13 5 -20 13 -17 6 2 12 10 12 17 0 7 -6 15 -12 18 -8
2 -13 -5 -13 -18z"/>
<path d="M2571 1301 c-44 -44 -20 -91 61 -121 34 -12 44 -21 46 -41 4 -35 -19
-51 -65 -47 -31 2 -39 7 -41 26 -5 32 -22 27 -22 -7 0 -33 14 -41 74 -41 60 0
88 23 84 68 -3 34 -8 39 -63 67 -66 33 -83 65 -45 85 34 18 74 9 78 -17 5 -36
24 -27 20 10 -3 31 -4 32 -55 35 -42 2 -56 -1 -72 -17z"/>
<path d="M2770 1265 c0 -18 -5 -25 -20 -25 -11 0 -20 -4 -20 -10 0 -5 9 -10
20 -10 17 0 19 -8 22 -72 l3 -73 38 -3 c21 -2 37 1 37 7 0 6 -11 11 -24 11
-27 0 -36 21 -36 88 0 41 0 42 35 42 44 0 46 18 3 22 -25 2 -34 8 -36 26 -5
30 -22 28 -22 -3z"/>
<path d="M3230 1265 c0 -18 -5 -25 -20 -25 -11 0 -20 -4 -20 -10 0 -5 9 -10
20 -10 17 0 19 -8 22 -72 l3 -73 38 -3 c21 -2 37 1 37 7 0 6 -11 11 -24 11
-27 0 -36 21 -36 88 0 41 0 42 35 42 44 0 46 18 3 22 -25 2 -34 8 -36 26 -5
30 -22 28 -22 -3z"/>
<path d="M1612 1234 c-18 -7 -32 -9 -32 -4 0 6 -13 10 -30 10 -16 0 -30 -4
-30 -10 0 -5 9 -10 20 -10 18 0 20 -7 20 -65 0 -58 -2 -65 -20 -65 -11 0 -20
-4 -20 -10 0 -5 24 -10 53 -9 50 0 51 1 30 16 -18 12 -23 25 -23 58 0 49 25
78 62 73 21 -3 23 -9 26 -65 2 -52 0 -63 -13 -63 -8 0 -15 -4 -15 -10 0 -5 20
-10 45 -10 25 0 45 5 45 10 0 6 -7 10 -15 10 -12 0 -15 14 -15 64 0 39 -5 67
-12 73 -25 19 -44 21 -76 7z"/>
<path d="M1918 1235 c-18 -5 -38 -21 -46 -35 -14 -28 -10 -93 8 -115 15 -18
81 -20 98 -3 9 9 12 2 12 -35 0 -40 -3 -47 -20 -47 -11 0 -20 -4 -20 -10 0 -5
23 -10 50 -10 28 0 50 5 50 10 0 6 -7 10 -15 10 -12 0 -15 20 -15 119 l0 119
-35 4 c-19 2 -50 -1 -67 -7z m72 -64 c0 -73 -39 -103 -82 -64 -42 38 -10 113
48 113 l34 0 0 -49z"/>
<path d="M2333 1239 c-52 -19 -72 -110 -32 -150 15 -15 30 -19 66 -17 26 2 48
8 50 15 3 8 -8 10 -35 6 -28 -4 -43 -1 -55 12 -32 31 -21 44 41 47 57 3 57 3
54 33 -2 16 -8 35 -13 41 -13 16 -51 22 -76 13z m55 -31 c25 -25 13 -38 -33
-38 -30 0 -45 4 -45 13 0 19 21 37 45 37 12 0 26 -5 33 -12z"/>
<path d="M3058 1242 c-45 -5 -33 -27 14 -27 39 0 43 -2 46 -27 3 -26 0 -28
-30 -28 -48 0 -70 -19 -66 -55 l3 -30 77 -2 c43 -1 80 3 84 8 3 5 -4 9 -15 9
-19 0 -21 6 -21 64 0 79 -19 97 -92 88z m60 -124 c-2 -17 -11 -24 -32 -26 -33
-4 -51 10 -43 32 4 11 19 16 42 16 32 0 36 -3 33 -22z"/>
<path d="M3392 1242 c-54 -9 -77 -107 -36 -153 21 -23 114 -28 114 -6 0 9 -12
11 -39 9 -31 -3 -42 0 -55 19 -9 13 -16 27 -16 31 0 5 27 8 60 8 59 0 60 0 60
28 0 43 -40 72 -88 64z m56 -49 c3 -21 -1 -23 -37 -23 -27 0 -41 4 -41 13 0
41 72 50 78 10z"/>
<path d="M3557 1237 c-12 -4 -25 -13 -29 -20 -11 -17 -10 -65 2 -72 12 -8 4
-48 -18 -93 -17 -33 -16 -34 7 -53 29 -23 97 -25 129 -3 24 17 30 68 10 81 -7
4 -33 10 -58 13 -46 5 -65 32 -25 35 57 5 87 38 71 80 -3 9 0 15 9 15 8 0 15
4 15 9 0 12 -85 18 -113 8z m58 -52 c0 -25 -4 -31 -26 -33 -35 -4 -54 20 -39
48 8 15 19 20 38 18 23 -2 27 -8 27 -33z m28 -135 c13 -12 -4 -40 -28 -46 -55
-14 -103 17 -77 49 9 11 25 13 55 10 23 -3 46 -9 50 -13z"/>
<path d="M1750 1230 c0 -5 7 -10 15 -10 12 0 15 -14 15 -65 0 -51 -3 -65 -15
-65 -8 0 -15 -4 -15 -10 0 -5 20 -10 45 -10 25 0 45 5 45 10 0 6 -7 10 -15 10
-12 0 -15 15 -15 75 l0 75 -30 0 c-16 0 -30 -4 -30 -10z"/>
<path d="M2050 1230 c0 -5 7 -10 15 -10 12 0 15 -13 15 -59 0 -41 5 -65 16
-75 18 -19 75 -21 92 -4 9 9 12 9 12 0 0 -7 13 -12 30 -12 17 0 30 5 30 10 0
6 -7 10 -15 10 -12 0 -15 15 -15 75 l0 75 -35 0 c-19 0 -35 -4 -35 -10 0 -5 9
-10 20 -10 17 0 20 -7 20 -48 0 -53 -20 -82 -57 -82 -27 0 -33 18 -33 91 0 59
0 59 -30 59 -16 0 -30 -4 -30 -10z"/>
<path d="M2870 1230 c0 -5 9 -10 20 -10 18 0 20 -7 20 -65 0 -58 -2 -65 -20
-65 -11 0 -20 -4 -20 -10 0 -5 25 -10 55 -10 60 0 68 5 30 20 -21 8 -25 16
-25 53 0 43 21 77 48 77 7 0 12 5 12 10 0 13 -16 13 -41 0 -13 -7 -19 -7 -19
0 0 5 -13 10 -30 10 -16 0 -30 -4 -30 -10z"/>
<path d="M3680 1234 c0 -4 6 -12 14 -18 7 -6 25 -42 40 -79 l26 -68 -20 -45
c-17 -39 -17 -45 -4 -42 10 2 35 49 64 118 27 63 54 116 59 118 24 8 9 22 -24
22 -33 0 -48 -14 -24 -22 10 -3 -14 -81 -31 -101 -4 -4 -16 16 -27 45 -17 43
-18 54 -7 56 30 7 12 22 -26 22 -22 0 -40 -3 -40 -6z"/>
</g>
</svg>
